<?xml version="1.0" standalone="no"?>
<!DOCTYPE svg PUBLIC "-//W3C//DTD SVG 20010904//EN"
 "http://www.w3.org/TR/2001/REC-SVG-20010904/DTD/svg10.dtd">
<svg version="1.0" xmlns="http://www.w3.org/2000/svg"
 width="1024.000000pt" height="538.000000pt" viewBox="0 0 1024.000000 538.000000"
 preserveAspectRatio="xMidYMid meet">

<g transform="translate(0.000000,538.000000) scale(0.100000,-0.100000)"
fill="#000000" stroke="none">
<path d="M2680 4548 c-113 -23 -201 -53 -270 -90 -282 -151 -453 -451 -437
-768 7 -131 27 -210 82 -325 99 -206 275 -356 505 -431 78 -25 98 -27 240 -28
174 0 231 11 354 68 172 79 304 218 367 385 34 90 59 228 59 320 0 47 -4 92
-8 98 -6 10 -96 13 -372 13 -201 0 -371 0 -377 0 -10 0 -13 -27 -13 -100 l0
-100 264 0 c211 0 266 -3 275 -14 15 -18 -7 -102 -49 -186 -59 -116 -190 -216
-338 -257 -78 -22 -230 -21 -307 1 -163 48 -320 175 -389 316 -50 103 -66 169
-66 281 0 172 59 307 193 437 210 203 517 230 756 65 35 -24 66 -43 70 -41 3
2 39 37 79 79 l73 76 -53 39 c-76 57 -97 69 -169 100 -151 64 -341 89 -469 62z"/>
<path d="M7200 3720 l0 -780 105 0 105 0 -2 778 -3 777 -102 3 -103 3 0 -781z
m47 -722 c-3 -8 -6 -5 -6 6 -1 11 2 17 5 13 3 -3 4 -12 1 -19z"/>
<path d="M4064 3950 c-100 -26 -163 -60 -237 -130 -217 -203 -223 -553 -13
-763 106 -106 228 -157 376 -157 157 0 281 50 387 158 210 212 204 559 -14
762 -140 131 -319 178 -499 130z m271 -225 c96 -56 175 -187 175 -289 0 -122
-86 -259 -195 -310 -154 -73 -338 9 -404 180 -34 90 -36 132 -12 212 34 114
124 207 224 233 59 15 164 2 212 -26z"/>
<path d="M6400 3952 c-82 -22 -150 -61 -222 -130 -75 -71 -115 -134 -150 -238
-34 -102 -36 -180 -9 -276 55 -191 181 -325 359 -383 83 -27 230 -18 302 17
30 15 68 39 84 53 16 14 33 25 38 25 4 0 8 -38 8 -85 0 -72 -4 -95 -28 -148
-47 -102 -129 -159 -248 -172 -50 -6 -69 -4 -107 13 -66 29 -110 66 -149 122
-18 27 -38 50 -44 50 -6 0 -37 -13 -70 -29 -32 -15 -69 -31 -81 -35 -32 -10
-29 -29 16 -94 73 -108 157 -167 286 -203 60 -16 96 -20 150 -16 220 15 342
90 427 262 52 103 53 120 53 700 l0 540 -102 3 -103 3 0 -41 c0 -22 -5 -40
-11 -40 -5 0 -27 13 -47 30 -41 33 -93 56 -167 76 -65 18 -105 17 -185 -4z
m245 -213 c114 -59 185 -178 185 -309 0 -103 -40 -193 -114 -258 -63 -55 -107
-72 -188 -72 -62 0 -81 4 -124 29 -63 36 -109 88 -143 161 -22 46 -26 69 -25
145 0 110 22 164 99 241 91 92 208 115 310 63z"/>
<path d="M7888 3941 c-173 -56 -319 -225 -348 -405 -29 -176 16 -337 128 -457
110 -119 196 -159 359 -167 128 -5 210 13 298 69 62 39 155 128 155 149 -1 14
-137 110 -156 110 -5 0 -27 -19 -49 -42 -59 -60 -148 -98 -231 -98 -55 0 -76
5 -125 31 -52 28 -129 106 -129 131 0 10 3 11 240 111 320 134 445 187 459
196 11 7 6 25 -27 94 -67 137 -168 234 -287 276 -76 27 -206 28 -287 2z m218
-186 c47 -14 134 -79 134 -101 0 -5 -51 -30 -112 -56 -62 -25 -158 -64 -213
-87 -55 -23 -112 -48 -126 -56 -14 -8 -29 -12 -33 -8 -11 11 -6 71 10 119 35
102 96 160 202 189 63 18 80 18 138 0z"/>
<path d="M5117 1021 c-88 -18 -137 -92 -137 -206 0 -54 5 -79 23 -110 40 -71
118 -105 210 -90 71 12 149 111 101 129 -30 11 -44 6 -59 -24 -17 -33 -61 -60
-97 -60 -33 0 -85 35 -103 69 -24 48 -20 150 8 192 43 65 145 72 184 13 18
-28 83 -35 83 -9 0 27 -77 95 -107 95 -16 0 -37 2 -48 4 -11 2 -37 1 -58 -3z"/>
<path d="M3671 998 c-5 -13 -25 -70 -45 -128 -32 -89 -82 -223 -95 -253 -2 -5
14 -7 34 -5 34 3 39 7 54 48 l17 45 83 3 c92 3 94 2 111 -60 10 -35 14 -38 45
-38 39 0 41 4 21 46 -7 16 -40 104 -72 196 l-59 168 -43 0 c-35 0 -44 -4 -51
-22z m83 -109 c4 -23 14 -55 22 -71 24 -47 13 -58 -57 -58 l-61 0 5 28 c4 24
14 54 38 120 5 12 17 22 28 22 14 0 20 -10 25 -41z"/>
<path d="M4320 995 c0 -24 3 -26 33 -23 24 2 32 8 32 23 0 15 -8 21 -32 23
-30 3 -33 1 -33 -23z"/>
<path d="M5440 815 l0 -205 35 0 35 0 0 205 0 205 -35 0 -35 0 0 -205z"/>
<path d="M5600 995 c0 -22 4 -25 35 -25 31 0 35 3 35 25 0 22 -4 25 -35 25
-31 0 -35 -3 -35 -25z"/>
<path d="M6513 993 c-15 -10 -23 -26 -23 -44 0 -22 -6 -32 -25 -39 -14 -5 -25
-16 -25 -23 0 -8 11 -19 25 -25 24 -11 25 -14 25 -121 0 -75 4 -112 13 -119
22 -18 92 -25 105 -10 15 18 3 35 -28 39 -25 4 -25 6 -28 106 l-3 102 28 3
c37 4 40 41 3 47 -33 4 -41 18 -33 64 6 40 0 44 -34 20z"/>
<path d="M5835 901 c-51 -23 -64 -39 -79 -98 -9 -34 -9 -60 -2 -91 19 -83 115
-133 188 -97 43 23 68 45 68 62 0 20 -54 16 -75 -7 -26 -29 -71 -26 -101 7
-14 15 -24 36 -22 47 3 19 12 21 108 26 l105 5 -4 30 c-4 37 -23 75 -47 96
-17 15 -31 21 -84 34 -8 3 -33 -4 -55 -14z m99 -52 c15 -12 26 -30 26 -45 0
-23 -2 -24 -75 -24 -69 0 -75 2 -75 20 0 28 44 70 73 70 13 0 36 -9 51 -21z"/>
<path d="M6227 895 c-46 -24 -47 -24 -57 -5 -10 19 -60 29 -60 13 0 -5 -1 -71
-1 -147 -1 -135 -1 -140 21 -148 12 -4 26 -6 31 -2 5 3 9 51 9 108 0 89 3 105
20 124 32 34 68 39 93 13 20 -19 22 -33 23 -129 l1 -107 29 0 c21 0 29 5 28
18 0 9 -1 68 -2 131 -2 106 -4 115 -24 128 -44 29 -63 29 -111 3z"/>
<path d="M3953 898 c38 -98 88 -232 100 -269 7 -21 42 -30 60 -15 8 6 28 49
44 96 17 47 40 109 52 138 19 48 19 53 5 59 -37 14 -57 -22 -94 -164 -12 -48
-35 -57 -49 -20 -5 12 -21 58 -34 102 -24 77 -27 80 -58 83 -23 3 -30 0 -26
-10z"/>
<path d="M4327 903 c-4 -3 -7 -71 -7 -150 l0 -144 32 3 31 3 -2 140 c-1 76 -5
143 -7 147 -6 10 -38 11 -47 1z"/>
<path d="M4514 896 c-33 -15 -44 -33 -44 -74 0 -40 26 -59 116 -83 72 -19 84
-25 84 -44 0 -32 -19 -45 -67 -45 -34 0 -48 6 -65 25 -23 26 -62 33 -74 13 -4
-6 8 -25 29 -45 34 -31 41 -33 106 -33 60 0 74 3 100 26 23 19 31 34 31 58 0
50 -18 65 -110 90 -60 16 -86 28 -88 40 -9 46 64 62 112 25 29 -23 71 -22 71
1 0 8 -15 25 -34 37 -39 27 -117 31 -167 9z"/>
<path d="M5607 904 c-4 -4 -7 -72 -7 -151 l0 -143 35 0 36 0 -3 148 -3 147
-25 3 c-14 2 -29 0 -33 -4z"/>
<path d="M6704 896 c-50 -22 -63 -90 -23 -123 8 -6 43 -19 79 -28 84 -23 100
-32 100 -53 0 -29 -21 -42 -67 -42 -34 0 -48 6 -65 25 -23 26 -62 33 -74 13
-4 -6 8 -25 29 -45 34 -31 41 -33 106 -33 60 0 74 3 100 26 23 19 31 34 31 58
0 50 -18 65 -110 90 -73 20 -85 26 -88 46 -2 12 2 27 10 31 24 15 75 9 102
-12 29 -23 71 -22 71 1 0 8 -15 25 -34 37 -39 27 -117 31 -167 9z"/>
</g>
</svg>
